<svg enable-background="new 0 0 23.8 23.8" viewBox="0 0 23.8 23.8" xmlns="http://www.w3.org/2000/svg"><path d="m11.9 2.1c3.2 0 3.5 0 4.8.1 1.2.1 1.8.2 2.2.4.5.2 1 .5 1.4.9s.7.9.9 1.4c.2.4.4 1 .4 2.2.1 1.3.1 1.6.1 4.8s0 3.5-.1 4.8c-.1 1.2-.2 1.8-.4 2.2-.4 1-1.2 1.9-2.3 2.3-.4.2-1 .4-2.2.4-1.3.1-1.6.1-4.8.1s-3.5 0-4.8-.1c-1.2-.1-1.8-.2-2.2-.4-.5-.2-1-.5-1.4-.9s-.7-.9-.9-1.4c-.2-.4-.4-1-.4-2.2-.1-1.3-.1-1.6-.1-4.8s0-3.5.1-4.8c.1-1.2.2-1.8.4-2.2.2-.5.5-1 .9-1.4s.9-.7 1.4-.9c.4-.2 1-.4 2.2-.4 1.2 0 1.6-.1 4.8-.1m0-2.1c-3.2 0-3.7 0-4.9.1s-2.1.2-2.9.5-1.5.8-2.1 1.4-1.1 1.3-1.4 2.1-.5 1.6-.5 2.9-.1 1.7-.1 4.9 0 3.6.1 4.9.3 2.1.6 2.9.8 1.5 1.4 2.1 1.3 1.1 2.1 1.4 1.6.5 2.9.6 1.7.1 4.9.1 3.6 0 4.9-.1 2.1-.3 2.9-.6c1.6-.6 2.9-1.9 3.5-3.5.3-.8.5-1.6.6-2.9s.1-1.7.1-4.9 0-3.6-.1-4.9-.3-2.1-.6-2.9-.8-1.5-1.4-2.1-1.3-1.1-2.1-1.4-1.6-.5-2.9-.6-1.8 0-5 0zm0 5.8c-3.4 0-6.1 2.7-6.1 6.1s2.7 6.1 6.1 6.1 6.1-2.7 6.1-6.1c0-3.4-2.8-6.1-6.1-6.1zm0 10c-2.2 0-4-1.8-4-4s1.8-4 4-4 4 1.8 4 4c-.1 2.3-1.8 4-4 4zm7.7-10.3c0 .8-.6 1.5-1.4 1.5s-1.4-.6-1.4-1.4.6-1.4 1.4-1.4c.8-.1 1.4.6 1.4 1.3z" fill="#b3b3b3"/></svg>